<svg xmlns="http://www.w3.org/2000/svg" width="500" height="500"><defs><clipPath id="a"><path d="M0 0h500v500H0z"/></clipPath></defs><g data-name="min ver" fill="#0f172a" clip-path="url(#a)"><path data-name="Path 1" d="M475 121.336H28.148v-54.7L251.574 32.31 475 66.633Z"/><path data-name="Path 2" d="M471.186 467.69H25l16.12-73.751h413.965Z"/><g data-name="Group 1"><path data-name="Path 3" d="m203.234 141.625 10.089-11.219h-56.942l-58.961 92.3v-76.8l7.849-16.385H52.14v250.207h45.28V298.49l17.918-26.552 49.719 107.79h49.618l-70.059-151.2Z"/><path data-name="Path 4" d="M226.65 129.518v250.21h45.3V145.903l7.85-16.385Z"/><path data-name="Path 5" d="M385.552 229.057c-24.436-7.849-40.8-17.938-40.8-32.951a28.318 28.318 0 0 1 28.59-28.472c16.829 0 27.987 15.275 27.987 30.57h45.885s-1.8-74.518-75.547-74.518-72.2 67.476-71.29 79.139c.767 10.069-1.352 41.022 62.33 64.792 32.285 11.885 44.836 24.214 44.836 43.04s-15.013 31.4-31.4 31.4-36.987-11.441-36.987-38.036h-43.944s.222 81.54 82.509 81.54c59.647-2.018 73.771-49.094 73.771-77.343s-10.977-60.313-65.922-79.139Z"/></g></g></svg>